# xmcd
#
# Track frame offsets: 
#        150
#        15003
#        33289
#        61486
#        83324
#        108280
#        126287
#        142560
#        167408
#        191565
#        208505
#        226376
#        253534
#        270866
#        287974
#        320942
#        341896
#
# Disc length: 4785 seconds
#
# Revision: 0
# Processed by: cddbd v1.5.2PL0 Copyright (c) Steve Scherf et al.
# Submitted via: ExactAudioCopy v1.3
#
DISCID=de12af11
DTITLE=Various Artist - Akella Presents - vol. 142 - Black Pure Blues
DTITLE=CD1
DYEAR=2018
DGENRE=Blues
TTITLE0=Altered Five Blues Band - Here's Your Hat, What's Your Hurry
TTITLE1=Mighty Sam McClain - Praise
TTITLE2=Kenny Neal - Carrying The Torch
TTITLE3=John 'Broadway' Tucker - Ain't That Good News
TTITLE4=Freddie King - It Hurts Me Too
TTITLE5=Johnny Copeland - Blues Ain't Nothin'
TTITLE6=Mud Morganfield and Kim Wilson - Blow Wind Blow
TTITLE7=Big T and the Family Band - I'm Looking for a Crossroads
TTITLE8=Big James And The Chicago Playboys - Low Down Dirty Blues
TTITLE9=Smokehouse - The Day Jack Frost Killed Parson Brown
TTITLE10=The Griswolds - That's All Right
TTITLE11=Lurrie Bell - Born With The Blues
TTITLE12=John Brim and Pinetop Perkins - How Long
TTITLE13=Lil' Ed And The Blues Imperials - Weatherman
TTITLE14=Louisiana Red - Bessie
TTITLE15=Edward Taylor - Greyhound Blues
TTITLE16=Little Sammy Davis and Midnight Slim - Fat Rat
EXTD=
EXTT0=
EXTT1=
EXTT2=
EXTT3=
EXTT4=
EXTT5=
EXTT6=
EXTT7=
EXTT8=
EXTT9=
EXTT10=
EXTT11=
EXTT12=
EXTT13=
EXTT14=
EXTT15=
EXTT16=
PLAYORDER=
